<?xml version="1.0" standalone="no"?><svg xmlns="http://www.w3.org/2000/svg" viewBox="0 0 1440 320"><path fill="" fill-opacity="1" d="M0,96L26.7,85.3C53.3,75,107,53,160,42.7C213.3,32,267,32,320,53.3C373.3,75,427,117,480,144C533.3,171,587,181,640,197.3C693.3,213,747,235,800,218.7C853.3,203,907,149,960,149.3C1013.3,149,1067,203,1120,234.7C1173.3,267,1227,277,1280,240C1333.3,203,1387,117,1413,74.7L1440,32L1440,320L1413.3,320C1386.7,320,1333,320,1280,320C1226.7,320,1173,320,1120,320C1066.7,320,1013,320,960,320C906.7,320,853,320,800,320C746.7,320,693,320,640,320C586.7,320,533,320,480,320C426.7,320,373,320,320,320C266.7,320,213,320,160,320C106.7,320,53,320,27,320L0,320Z"></path></svg>